<?xml version="1.0" encoding="UTF-8"?>
<svg width="100pt" height="100pt" version="1.1" viewBox="0 0 100 100" xmlns="http://www.w3.org/2000/svg">
 <path d="m96.27 9.1055c-1.6055-0.99219-4.2734-1.6094-7.8711 1.0625-0.65625 0.49219-1.207 1.0547-1.6914 1.5547l-0.30078 0.30469c-0.51953 0.52734-1.0273 1.0664-1.5352 1.6055-0.92188 0.97266-1.7891 1.8945-2.7148 2.7539-3.4688 3.2266-7.4023 5.7148-11.699 7.3984-6.0664 2.3789-12.707 3.4805-19.125 4.543-2.5859 0.42969-5.2617 0.87109-7.8828 1.3945-3.7539 0.74609-8.7227 2.4453-12.184 5.0391-2.9688-1.0625-5.8867-2.4727-8.5391-4.4453-4.2734-3.1797-6.6016-7.7891-8.4766-12.293l-0.625-1.5156c-1.0039-2.4492-2.0469-4.9805-3.3945-7.3906-1.0117-1.8008-2.8047-2.6914-4.9297-2.4453-1.3047 0.14844-3.0547 0.85547-3.9844 3.3555-0.55078 1.4688-0.54688 2.9023-0.46484 4.2305 0.14844 2.5195 0.49219 5.0312 1.0234 7.4727 0.91016 4.1836 2.3906 8.3086 4.4023 12.254 0.60156 1.1836 1.2969 2.2852 1.9688 3.3516 1.0391 1.6484 2.0195 3.2031 2.5625 4.8828 3.5352 10.934 4.5547 25.34 2.8633 40.559-0.28125 2.5234 1.9688 4.7227 16.043 11.098l0.73047 0.33203c0.26953 0.12109 1.0039 0.41016 1.875 0.74219 0.92188 0.35547 2.7578 1.0625 3.3633 1.3516 0.11328 0.089844 0.23438 0.16797 0.36328 0.23438 0.32812 0.16797 0.68359 0.25391 1.0391 0.25391 0.41797 0 0.83203-0.11328 1.1992-0.34375 2.7422-1.707 7.4297-6.9336 10.145-10.637 0.003906 0.43359-0.015626 0.89844-0.03125 1.1992-0.019532 0.38281-0.035157 0.72656-0.035157 1.0117 0.019531 2.7695 0.078125 5.7305 0.18359 9.3203 0.035156 1.1523 0.92578 2.0938 2.0742 2.1914 0.36719 0.03125 0.96875 0.046875 1.8477 0.046875 3.4297 0 11.543-0.26172 14.766-0.86328 1.0664-0.19922 1.8477-1.1289 1.8516-2.2148 0.011718-1.5312 0.050781-3.3203 0.09375-5.1758 0.070312-3.043 0.14453-6.1875 0.09375-8.7109-0.003907-0.125 0-0.22656 0-0.30469 0.03125-0.019532 0.0625-0.035156 0.097656-0.054688 0.21875-0.12891 0.46094-0.26953 0.73828-0.44922 1.7656-1.1523 3.3359-2.2148 4.7031-3.5117 0.20312-0.19141 0.42188-0.39453 0.64453-0.60156 2.1484-1.9844 5.0898-4.7031 4.8164-8.2656-0.11328-1.5039-0.85547-2.6289-1.9844-3.1992 0.37109-3.7344 0.32422-10.027 0.22266-17.141-0.03125-2.2383-0.058594-4.168-0.03125-4.9258 0.0625-1.5781 0.6875-3.9258 0.86719-4.3438 0.8125-1.5547 1.918-2.5039 3.0898-3.5117l0.80078-0.69922c1.6133-1.4219 3.2227-2.8438 4.8242-4.2734 3.2305-2.8828 5.9648-6.0156 8.3945-9.6328 1.1133-1.6562 2.5-3.7227 2.7148-6.168 0.18359-2.1172-0.875-5.1797-2.9023-6.4258zm-59.41 82.758c-0.73438-0.3125-1.6875-0.67969-2.918-1.1523-0.75-0.28906-1.3867-0.53125-1.6133-0.63672l-0.74609-0.33984c-9.7148-4.3984-12.527-6.3281-13.336-7.1016 0.98828-9.3438 1.793-26.613-3.125-41.816-0.71875-2.2227-1.8984-4.0938-3.043-5.9062-0.64844-1.0234-1.2578-1.9922-1.7656-2.9883-1.8359-3.6016-3.1836-7.3555-4.0117-11.16-0.48047-2.2109-0.79297-4.4883-0.92578-6.7812-0.058594-0.96094-0.050781-1.7305 0.1875-2.3672 0.12891-0.35156 0.23047-0.44141 0.25781-0.4375 0.25-0.027343 0.33984 0.011719 0.33984 0.011719 0.011719 0.007812 0.050782 0.046875 0.10156 0.14062 1.2188 2.1758 2.1602 4.4688 3.1562 6.9023l0.63281 1.5352c2.125 5.1016 4.8008 10.355 9.957 14.188 6.332 4.7148 13.738 6.5703 20.145 7.7695 2.7656 0.51953 4.9219 0.82031 6.9844 0.97656l0.15625 0.011719c1.1445 0.085937 1.6797 0.16797 1.8164 0.41016 0.050781 0.10938 0.074219 0.26562 0.082031 0.44531 0.003906 0.023438 0.007813 0.042969 0.007813 0.0625 0.007812 0.57422-0.16797 1.3477-0.40625 1.5547-1.9102 1.2773-6.1289 1.4375-8.918 1.5391-2.8242 0.10547-4.2305 0.1875-5.2656 0.82812-0.66797 0.41406-1.1094 1.082-1.3086 1.9922-0.73047 3.3125 1.6055 13.898 4.5977 20.539-1.7422 1.1641-1.4727 3.1953-1.3711 3.8867l0.03125 0.23828c0.17969 1.5352 0.87891 2.9492 2.0273 4.0938 1.9062 1.8945 3.9727 3.5117 6.1641 4.8398-2.1094 2.8828-5.6445 6.8633-7.8906 8.7227zm35.52-17.504c-0.23828 0.22266-0.47266 0.4375-0.69141 0.64453-0.99219 0.94141-2.1953 1.7852-4.0586 3.0039-0.19922 0.13281-0.38281 0.23438-0.54297 0.32813-1.5625 0.91016-2.4023 1.8789-2.3555 4.375 0.050781 2.4258-0.023438 5.5195-0.09375 8.5156-0.023438 1.1289-0.050781 2.2344-0.070313 3.2773-3.1328 0.31641-8.2539 0.51953-11.547 0.53906-0.066406-2.6133-0.10547-4.8945-0.12109-7.0586-0.003907-0.21094 0.011718-0.46484 0.027343-0.73828 0.09375-1.7812 0.26953-5.1016-2.5312-6.2891-3.1289-1.3281-6.0234-3.3047-8.6016-5.8633-0.20312-0.20312-0.36328-0.41406-0.48047-0.63672 4.6641 2.1016 10.109 4.1367 15.711 4.1367 2.1875 0 4.293-0.31641 6.2578-0.94531 2.0273-0.64453 4.1602-1.7617 6.0078-3.1445l0.17188-0.12891c3.3008-2.4922 5.1758-3.4414 6.1523-3.8047-0.49219 1.2539-2.1016 2.7422-3.2344 3.7891zm20.27-55.129c-2.1797 3.2383-4.668 6.0898-7.6094 8.7188-1.5977 1.4258-3.1992 2.8398-4.8047 4.2539l-0.76172 0.66406c-1.3047 1.125-2.9336 2.5234-4.1484 4.8438-0.54297 1.0352-1.3008 4.1953-1.3828 6.2773-0.03125 0.87891-0.007812 2.6758 0.03125 5.1602 0.066406 4.6719 0.19922 13.82-0.26172 17.293-1.8555 0.74609-4.1445 2.1562-6.9922 4.3047l-0.15625 0.11719c-1.4492 1.0859-3.1055 1.957-4.6641 2.4531-1.5195 0.48438-3.1641 0.73047-4.8828 0.73047-4.793 0-9.6914-1.8672-13.934-3.7773-3.0156-5.0625-5.3203-15.453-5.4023-18.895 0.6875-0.058594 1.6133-0.09375 2.3633-0.12109 3.1523-0.11719 6.9531-0.26953 9.8555-1.5469 0.27734 2.5234 0.51953 4.9375 0.66406 6.4023-1.8984 1.375-3.0391 3.5469-3.2227 6.3438-0.16797 2.5625 0.75391 5.1875 2.4688 7.0234 1.5859 1.6914 3.7539 2.625 6.1055 2.625 0.23438 0 0.47266-0.007812 0.71094-0.027343 4.8555-0.36328 8.5195-4.1562 8.5195-8.8242 0-4.8672-3.8984-8.8281-8.6914-8.8281-0.51562 0-1.0117 0.035156-1.4883 0.089844-0.28906-2.8867-0.77344-7.5703-1.2422-11.023-0.03125-0.96484-0.24609-1.8789-0.65625-2.5977-1.3594-2.3945-3.8047-2.582-5.4219-2.707l-0.15234-0.011719c-1.8984-0.14453-3.9023-0.42969-6.5039-0.91406-1.2148-0.22656-2.4727-0.48047-3.7422-0.77344 2.2969-1.0703 4.8945-1.8828 7.082-2.3164 2.5508-0.50781 5.1875-0.94531 7.7383-1.3672 6.6484-1.1016 13.523-2.2383 20.039-4.793 4.8281-1.8945 9.25-4.6875 13.137-8.3047 1.0312-0.96094 1.9922-1.9766 2.9219-2.9609 0.48828-0.51563 0.97656-1.0352 1.4688-1.5352l0.31641-0.32422c0.40234-0.41406 0.78516-0.80469 1.1523-1.082 1.8789-1.3984 2.5312-0.99219 2.7695-0.84766 0.34375 0.25781 0.83203 1.5234 0.77344 2.1875-0.10547 1.2812-1.0859 2.7422-1.9961 4.0898zm-40.781 43.527c0.11328-1.7656 0.74219-3.793 4.5859-3.793 2.2891 0 4.1523 1.9258 4.1523 4.2891 0 2.6094-2.1758 4.1367-4.3242 4.2969-0.125 0.011719-0.24609 0.015625-0.36719 0.015625-1.1133 0-2.0547-0.39844-2.793-1.1875-0.85938-0.91797-1.3438-2.3047-1.2539-3.6211zm-21.383-33.707c6.0234 0 10.922-4.8984 10.922-10.922 0-6.0195-4.8984-10.922-10.922-10.922s-10.922 4.8984-10.922 10.922c0 6.0234 4.8984 10.922 10.922 10.922zm0-17.305c3.5195 0 6.3828 2.8633 6.3828 6.3828 0 3.5195-2.8633 6.3828-6.3828 6.3828s-6.3867-2.8633-6.3867-6.3828c0-3.5195 2.8672-6.3828 6.3867-6.3828zm28.98 12.457c6.4062 0 11.617-5.2109 11.617-11.617 0-6.3672-5.8906-12.168-12.355-12.168-3.0742 0-6.0234 1.3281-8.0938 3.6445-2.125 2.3789-3.1367 5.5781-2.7734 8.7734 0.74219 6.5898 5.6211 11.367 11.605 11.367zm-5.4492-17.113c1.2266-1.375 2.8984-2.1328 4.707-2.1328 3.9453 0 7.8164 3.7773 7.8164 7.6289 0 3.9023-3.1758 7.082-7.0781 7.082-4.3086 0-6.6953-3.8008-7.0938-7.3359-0.21484-1.918 0.38672-3.8281 1.6484-5.2422z" fill="#7f7f7f"/>
</svg>
