<?xml version="1.0" encoding="UTF-8"?>
<svg width="100pt" height="100pt" version="1.1" viewBox="0 0 100 100" xmlns="http://www.w3.org/2000/svg">
 <g fill="#7f7f7f">
  <path d="m92.5 70h-72.5v-42.5c0-0.69922-0.30078-1.3008-0.69922-1.8008l-1.8008-1.6992-8.1992-8.1992c-1-1-2.6016-1-3.5 0-1 1-1 2.6016 0 3.5l9.3008 9.3008v44c0 1.3984 1.1016 2.5 2.5 2.5h11.898c-1.1992 1.3008-1.8984 3.1016-1.8984 5 0 4.1016 3.3984 7.5 7.5 7.5 4.1016 0 7.5-3.3984 7.5-7.5 0-1.8984-0.69922-3.6992-1.8984-5h31.398c-1.1992 1.3008-1.8984 3.1016-1.8984 5 0 4.1016 3.3984 7.5 7.5 7.5 4.0977 0 7.2969-3.5 7.2969-7.6016 0-1.8984-0.69922-3.6992-1.8984-5h9.3984c1.3984 0 2.5-1.1016 2.5-2.5s-1.1016-2.5-2.5-2.5zm-57.5 12.5c-1.3984 0-2.5-1.1016-2.5-2.5s1.1016-2.5 2.5-2.5 2.5 1.1016 2.5 2.5-1.1016 2.5-2.5 2.5zm42.5 0c-1.3984 0-2.5-1.1016-2.5-2.5s1.1016-2.5 2.5-2.5 2.5 1.1016 2.5 2.5-1.1016 2.5-2.5 2.5z"/>
  <path d="m80.898 65h6.6016c1.3984 0 2.5-1.1016 2.5-2.5v-35c0-1.3984-1.1016-2.5-2.5-2.5h-7.6016c-1.2969-11.199-10.797-20-22.398-20s-21.102 8.8008-22.398 20h-7.6016c-1.3984 0-2.5 1.1016-2.5 2.5v35c0 1.3984 1.1016 2.5 2.5 2.5zm-23.398-55c9.6016 0 17.5 7.8984 17.5 17.5s-7.8984 17.5-17.5 17.5-17.5-7.8984-17.5-17.5 7.8984-17.5 17.5-17.5zm-27.5 20h5.1016c1.1992 11.199 10.801 20 22.398 20 11.602 0 21.102-8.8008 22.398-20h5.1016v30h-55z"/>
  <path d="m53.199 36.801c0.5 0.5 1.1016 0.69922 1.8008 0.69922s1.3008-0.19922 1.8008-0.69922l12.5-12.5c1-1 1-2.6016 0-3.5-1-1-2.6016-1-3.5 0l-10.801 10.699-5.6992-5.6992c-1-1-2.6016-1-3.5 0-1 1-1 2.6016 0 3.5z"/>
 </g>
</svg>
