<?xml version="1.0" encoding="UTF-8"?>
<svg width="100pt" height="100pt" version="1.1" viewBox="0 0 100 100" xmlns="http://www.w3.org/2000/svg">
 <g>
  <path d="m50 18.102c-17.602 0-32 14.398-32 32 0 17.602 14.398 32 32 32s32-14.398 32-32c0-17.703-14.398-32-32-32zm0 60c-15.398 0-28-12.602-28-28 0-15.398 12.602-28 28-28s28 12.602 28 28c0 15.398-12.602 28-28 28z"/>
  <path d="m69.301 52.801c-0.60156 4.1992-2.6016 8.1992-5.6992 11.199l2.8008 2.8984c3.6992-3.6016 6.1016-8.3984 6.8008-13.5z"/>
  <path d="m69.199 46.801 3.8984-0.69922c-1.8984-11.301-11.602-19.5-23.102-19.5v4c9.5039 0 17.605 6.7969 19.203 16.199z"/>
  <path d="m1 48h14.398v4h-14.398z"/>
  <path d="m84.602 48h14.398v4h-14.398z"/>
  <path d="m48 84.602h4v14.398h-4z"/>
  <path d="m48 1h4v14.398h-4z"/>
  <path d="m24.098 26.941-10.891-10.891 2.8281-2.8281 10.891 10.891z"/>
  <path d="m75.902 73.035 10.891 10.891-2.8281 2.8281-10.891-10.891z"/>
  <path d="m24.129 73.074 2.8281 2.8281-10.891 10.891-2.8281-2.8281z"/>
  <path d="m75.871 26.906-2.8281-2.8281 10.891-10.891 2.8281 2.8281z"/>
  <path d="m17.258 38.566-14.227-5.8984 1.5312-3.6953 14.227 5.8984z"/>
  <path d="m96.949 67.273-1.5312 3.6953-14.227-5.8984 1.5312-3.6953z"/>
  <path d="m34.883 81.219 3.6953 1.5312-5.8984 14.227-3.6953-1.5312z"/>
  <path d="m65.113 18.766-3.6953-1.5312 5.8984-14.227 3.6953 1.5312z"/>
  <path d="m34.957 18.77-5.8906-14.23 3.6953-1.5312 5.8906 14.23z"/>
  <path d="m65.039 81.211 5.8906 14.23-3.6953 1.5312-5.8906-14.23z"/>
  <path d="m17.219 61.363 1.5312 3.6953-14.23 5.8906-1.5312-3.6953z"/>
  <path d="m82.773 38.617-1.5312-3.6953 14.23-5.8906 1.5312 3.6953z"/>
 </g>
</svg>
