<?xml version="1.0" encoding="UTF-8"?>
<svg width="100pt" height="100pt" version="1.1" viewBox="0 0 100 100" xmlns="http://www.w3.org/2000/svg">
 <g fill="#7f7f7f">
  <path d="m13.352 69.848 36.156 9.4648c0.16797 0.042969 0.33594 0.0625 0.50781 0.0625 0.16797 0 0.33984-0.019531 0.50391-0.0625l36.156-9.4648c0.87891-0.23047 1.4922-1.0234 1.4922-1.9336v-51.078c0-0.62109-0.28516-1.2031-0.77734-1.582-0.21484-0.16797-0.46094-0.27344-0.71875-0.34375l0.003906-0.011718-36.156-9.4609c-0.33203-0.085938-0.67969-0.085938-1.0117 0l-36.156 9.4609 0.003907 0.007812c-0.25781 0.066406-0.50391 0.17578-0.71875 0.34375-0.49219 0.37891-0.77734 0.96484-0.77734 1.582v51.074c0 0.91406 0.61328 1.707 1.4922 1.9414zm34.664-41.902v46.836l-14.078-3.6836v-46.836zm2-3.7148-9.832-2.5742 28.254-7.3945 9.832 2.5742zm-34.156-4.7031 14.078 3.6836v46.836l-14.078-3.6836zm68.309 46.84-32.152 8.4141v-46.941l32.152-8.4141zm-34.152-56.926 10.52 2.7539-28.254 7.3945-10.523-2.7539z"/>
  <path d="m94.812 86.75-0.089844-0.089844c-0.042968-0.046875-0.089844-0.09375-0.13672-0.13672l-5.0195-5.0195c-0.78125-0.78125-2.0469-0.78125-2.8281 0s-0.78125 2.0469 0 2.8281l1.668 1.668h-81.156c-1.1055 0-2 0.89453-2 2s0.89453 2 2 2h81.484l-1.9961 1.9961c-0.78125 0.78125-0.78125 2.0469 0 2.8281 0.39062 0.39062 0.90234 0.58594 1.4141 0.58594 0.51172 0 1.0234-0.19531 1.4141-0.58594l5.2461-5.2461c0.375-0.375 0.58594-0.88672 0.58594-1.4141 0-0.53125-0.21094-1.0391-0.58594-1.4141z"/>
 </g>
</svg>
